<?xml version="1.0" standalone="no"?>
<!DOCTYPE svg PUBLIC "-//W3C//DTD SVG 1.1//EN" "http://www.w3.org/Graphics/SVG/1.1/DTD/svg11.dtd" >
<svg xmlns="http://www.w3.org/2000/svg">
<metadata>
Created by FontForge 20120731 at Mon Jul 11 09:44:50 2016
 By admin
</metadata>
<defs>
<font id="iconfont" horiz-adv-x="1024" >
  <font-face 
    font-family="iconfont"
    font-weight="500"
    font-stretch="normal"
    units-per-em="1024"
    panose-1="2 0 6 3 0 0 0 0 0 0"
    ascent="896"
    descent="-128"
    x-height="792"
    bbox="-0.142858 -212 1294 896"
    underline-thickness="50"
    underline-position="-100"
    unicode-range="U+0078-F0020"
  />
<missing-glyph horiz-adv-x="374" 
d="M34 0v682h272v-682h-272zM68 34h204v614h-204v-614z" />
    <glyph glyph-name=".notdef" horiz-adv-x="374" 
d="M34 0v682h272v-682h-272zM68 34h204v614h-204v-614z" />
    <glyph glyph-name=".null" horiz-adv-x="0" 
 />
    <glyph glyph-name="nonmarkingreturn" horiz-adv-x="341" 
 />
    <glyph glyph-name="x" unicode="x" horiz-adv-x="1001" 
d="M281 543q-27 -1 -53 -1h-83q-18 0 -36.5 -6t-32.5 -18.5t-23 -32t-9 -45.5v-76h912v41q0 16 -0.5 30t-0.5 18q0 13 -5 29t-17 29.5t-31.5 22.5t-49.5 9h-133v-97h-438v97zM955 310v-52q0 -23 0.5 -52t0.5 -58t-10.5 -47.5t-26 -30t-33 -16t-31.5 -4.5q-14 -1 -29.5 -0.5
t-29.5 0.5h-32l-45 128h-439l-44 -128h-29h-34q-20 0 -45 1q-25 0 -41 9.5t-25.5 23t-13.5 29.5t-4 30v167h911zM163 247q-12 0 -21 -8.5t-9 -21.5t9 -21.5t21 -8.5q13 0 22 8.5t9 21.5t-9 21.5t-22 8.5zM316 123q-8 -26 -14 -48q-5 -19 -10.5 -37t-7.5 -25t-3 -15t1 -14.5
t9.5 -10.5t21.5 -4h37h67h81h80h64h36q23 0 34 12t2 38q-5 13 -9.5 30.5t-9.5 34.5q-5 19 -11 39h-368zM336 498v228q0 11 2.5 23t10 21.5t20.5 15.5t34 6h188q31 0 51.5 -14.5t20.5 -52.5v-227h-327z" />
    <glyph glyph-name="uni3436" unicode="&#x3436;" horiz-adv-x="1000" 
d="M835 579h-175v-58h116l117 -291h-233q0 -67 -39.5 -106.5t-106 -39.5t-106 39.5t-39.5 106.5h-233l116 291h117v58h-175l-117 -349v-350h874v350zM893 -61h-757v233h174q19 -69 73.5 -107.5t130.5 -38.5t130.5 38.5t73.5 107.5h175v-233zM325 434l189 -190l190 190
l-44 43l-117 -116v393h-58v-393l-116 116z" />
    <glyph glyph-name="uni35B9" unicode="&#x35b9;" 
d="M945 212h-616l36 71l9 18q4 6 4 14q0 10 -7 17t-17 7q-15 0 -21 -14l-11 -21l-47 -92h-139l214 382l139 -219l20 -33l20 33l76 124l84 -239q0 -1 1 -2l1 -2q7 -13 21 -13q10 0 17 7t7 17v3v1l-2 6l-92 263q-8 24 -29 26.5t-34 -18.5l-70 -115l-127 201q-13 19 -33.5 18.5
t-32.5 -20.5l-235 -420h-9q-18 0 -30 -22q-12 -23 -12 -49q0 -54 50.5 -97.5t139 -68.5t196.5 -25q65 0 141.5 12.5t146 40.5t89.5 65h152q20 0 34 14t14 33v49q0 20 -14 34t-34 14zM759 108l-6 -13q-3 -17 -47 -39.5t-124.5 -40.5t-165.5 -18q-145 0 -241.5 44.5
t-96.5 99.5q0 8 5 24h547l315 -1v-49h-176q-7 0 -10 -7z" />
    <glyph glyph-name="uni35BD" unicode="&#x35bd;" 
d="M945 212h-616l36 71l9 18q4 6 4 14q0 10 -7 17t-17 7q-15 0 -21 -14l-11 -21l-47 -92h-139l214 382l139 -219l20 -33l20 33l76 124l84 -239q0 -1 1 -2l1 -2q7 -13 21 -13q10 0 17 7t7 17v3v1l-2 6l-92 263q-8 24 -29 26.5t-34 -18.5l-70 -115l-127 201q-13 19 -33.5 18.5
t-32.5 -20.5l-235 -420h-9q-18 0 -30 -22q-12 -23 -12 -49q0 -54 50.5 -97.5t139 -68.5t196.5 -25q65 0 141.5 12.5t146 40.5t89.5 65h152q20 0 34 14t14 33v49q0 20 -14 34t-34 14zM759 108l-6 -13q-3 -17 -47 -39.5t-124.5 -40.5t-165.5 -18q-145 0 -241.5 44.5
t-96.5 99.5q0 8 5 24h547l315 -1v-49h-176q-7 0 -10 -7z" />
    <glyph glyph-name="uniE604" unicode="&#xe604;" 
d="M508 753l-352 -211l354 -212l352 211zM122 60l353 -211v423l-353 212v-424zM541 270v-421l353 211v421zM541 270z" />
    <glyph glyph-name="uniE607" unicode="&#xe607;" 
d="M531 -1q-88 0 -165 42t-122.5 114.5t-45.5 157t46 155.5t122.5 111.5t164.5 40.5q80 0 155.5 -32.5t107.5 -95.5l-160 -179l198 -128q-41 -95 -121.5 -140.5t-179.5 -45.5zM531 588q-120 0 -204 -80t-84 -195t84 -195t204 -80q77 0 144 36t106 98l-199 128l160 192
q-42 47 -97 71.5t-114 24.5zM563 428q-24 0 -40.5 17t-16.5 41t16.5 40.5t40.5 16.5t41 -16.5t17 -40.5t-17 -41t-41 -17zM563.5 518q-14.5 0 -23.5 -9t-9 -23.5t9 -23t23.5 -8.5t23 8.5t8.5 23t-8.5 23.5t-23 9z" />
    <glyph glyph-name="uniE608" unicode="&#xe608;" 
d="M701 344q-46 0 -77 31l-83 83q-30 30 -31.5 73t25.5 78l135 177q5 7 14 7.5t15 -5.5l254 -255q6 -6 5.5 -15t-7.5 -14l-176 -135q-33 -25 -74 -25zM687 744l-121 -159q-18 -23 -17.5 -51.5t19.5 -47.5l83 -83q20 -20 50 -20q27 0 50 17l159 122zM603 418q-8 0 -14 5.5
t-6 13.5t6 14l209 210q6 5 14 5t14 -5.5t6 -13.5t-6 -14l-209 -209q-6 -6 -14 -6zM552 469q-8 0 -14 5q-6 6 -6 14t5 14l195 211q5 6 13 6t14 -5.5t6.5 -13.5t-5.5 -14l-194 -210q-6 -7 -14 -7zM814 512q-9 0 -14 6q-6 6 -5.5 14.5t6.5 13.5l59 54q6 6 14 5.5t13.5 -6.5
t5 -14t-6.5 -13l-59 -55q-5 -5 -13 -5zM760 463q-8 0 -14 6t-5.5 14t6.5 14l54 49q6 6 14 5.5t13.5 -6.5t5 -14t-6.5 -14l-53 -49q-6 -5 -14 -5zM662 372q-8 0 -14 7q-6 5 -5.5 13.5t6.5 13.5l98 91q6 5 14 4.5t13.5 -6.5t5 -14t-5.5 -13l-99 -91q-5 -5 -13 -5zM354 169
q-8 0 -13.5 6t-5.5 14t6 14l241 241q6 6 14 6t13.5 -6t5.5 -14t-5 -13l-242 -242q-6 -6 -14 -6zM214 -25q-19 0 -33 13l-29 29q-13 14 -13 33t13 32l118 118q13 13 32 13t33 -13l29 -29q13 -14 13 -33t-13 -32l-118 -118q-13 -13 -32 -13zM302 174q-3 0 -5 -2l-117 -117
q-5 -5 0 -10l29 -29q2 -2 4.5 -2t4.5 2l118 117q2 2 2 5t-2 5l-29 29q-2 2 -5 2zM614 170q-8 0 -14 6l-235 235q-6 6 -6 14t5.5 13.5t13.5 5.5t14 -5l235 -236q6 -5 6 -13t-5.5 -14t-13.5 -6zM754 -25q-19 0 -33 13l-118 118q-13 13 -13 32t13 33l30 29q13 13 32 13t33 -13
l117 -118q14 -13 14 -32t-14 -33l-29 -29q-13 -13 -32 -13zM665 174q-3 0 -5 -2l-29 -29q-5 -5 0 -10l118 -117q2 -2 4.5 -2t4.5 2l30 29q2 2 2 5t-2 5l-118 117q-2 2 -5 2zM258 356q-80 0 -136 56q-56 57 -56.5 136t55.5 135q55 55 134 55t136 -56q56 -57 56.5 -136
t-55.5 -135q-55 -55 -134 -55zM255 699q-63 0 -107 -44t-43.5 -107t44.5 -108q46 -45 109 -45t107 44t43.5 107t-45.5 108t-108 45zM257 425q-50 0 -86 36t-36.5 86.5t35 86t86 35t86.5 -35.5q12 -12 20 -26q4 -7 2 -15t-9 -12t-15 -2t-12 9q-6 10 -14 18q-24 24 -58 24.5
t-58.5 -23.5t-24 -58.5t25 -59t58.5 -24.5t58 24q6 6 14 6t14 -6t6 -14t-6 -14q-35 -35 -86 -35z" />
    <glyph glyph-name="uniE609" unicode="&#xe609;" 
d="M512 -206q-103 0 -196.5 40t-161.5 108t-108 161.5t-40 196.5t40 196.5t108 161.5t161.5 108t196.5 40t196.5 -40t161.5 -108t108 -161.5t40 -196.5t-40 -196.5t-108 -161.5t-161.5 -108t-196.5 -40zM512 774q-96 0 -184 -37.5t-151.5 -101t-101 -151.5t-37.5 -184
t37.5 -184t101 -151.5t151.5 -101t184 -37.5t184 37.5t151.5 101t101 151.5t37.5 184t-37.5 184t-101 151.5t-151.5 101t-184 37.5zM512 402l47 46q39 39 94 39q52 0 92 -39q39 -40 39 -92q0 -55 -39 -94l-233 -234l-233 234q-39 39 -39 94q0 52 39 92q39 39 92 39
q55 0 94 -39z" />
    <glyph glyph-name="uniE611" unicode="&#xe611;" 
d="M199 558v62v32v63v31v63v16q0 6 -4.5 10.5t-11 4.5t-11.5 -4.5t-5 -10.5v-16h-15v-63h15v-31h-15v-63h15v-32h-15v-62h15v-16q0 -7 5 -11.5t11.5 -4.5t11 4.5t4.5 11.5v16zM136 620v32v63v31v63v16q0 6 -4.5 10.5t-11 4.5t-11 -4.5t-4.5 -10.5v-16h-16q-13 0 -22 -9
t-9 -22.5t9 -22.5t22 -9h16v-31h-16q-13 0 -22 -9.5t-9 -22.5t9 -22t22 -9h16v-32h-16q-13 0 -22 -9t-9 -22t9 -22t22 -9h16v-16q0 -7 4.5 -11.5t11 -4.5t11 4.5t4.5 11.5v16v62zM907 741l-476 -24q-5 25 -20 44t-32 28t-33 14t-26 5l-11 1h-63h-31v-63h31q4 0 9 -1t14 -8.5
t9 -21.5h-63v-63h63q0 -14 -8 -22t-16 -9l-8 -1h-31v-62v-32q0 -20 6 -36.5t12 -23t16 -16.5q13 -12 13 -18q0 -15 -16 -16q-7 0 -11.5 -4.5t-4.5 -11t4.5 -11t11.5 -4.5q17 0 32 11.5t15 35.5q0 20 -22 41q-9 8 -13 12.5t-8 15.5t-4 25v32h63q4 0 11 0.5t26 5.5t34 13.5
t30.5 27.5t20.5 45l476 -24q4 -1 8 0q24 1 39.5 19.5t14 42t-20 39.5t-41.5 14zM718 301q11 7 14 17q5 13 -1 25.5t-19 17.5q-34 12 -71 14q-67 46 -148 46q-98 0 -173 -65q-79 -5 -133 -62.5t-54 -136.5h11h11q0 64 39.5 113t100.5 62q-13 -15 -22 -29q-44 -18 -70.5 -58
t-26.5 -88h10h11q0 68 56 110q-25 -53 -25 -110h11h11q0 69 37 128q3 6 9 14q7 10 10 14q10 11 23 23q8 7 11 10q1 0 10 7q64 47 143 47q56 0 107 -25q-20 -2 -39 -8q-37 12 -68 12q-71 0 -129 -42q-2 -1 -4 -3l-2 -2l-3 -3l-13 -10q-5 -4 -14 -15q-2 -2 -10 -11
q-47 -61 -47 -136h10h11q0 86 64 146l1 1q58 54 136 54q15 0 34 -4q-21 -10 -37 -22q-12 -8 -22 -17q-64 -1 -109.5 -47.5t-45.5 -110.5h11h10q0 50 32 88t80 47q2 0 15 1q2 0 5.5 0.5t5.5 0.5h2h3q15 -1 31 -5q10 -3 12 -4q3 -1 11 -5q35 -17 56.5 -50t21.5 -73h11h10
q0 42 -21 78t-56 57q33 17 69 17q71 -61 71 -152h11h11q0 42 -17 83q-1 2 -3 6.5t-2 5.5q-6 10 -12 21q-5 8 -8 12q-6 9 -17 21q15 -3 30 -8h2q1 0 2 -1h1q1 -1 2 -3t2 -3q3 -4 6 -9l12 -22q4 -10 5 -11q0 -2 1.5 -6t2.5 -5q14 -40 14 -81h10h11q0 39 -12 77q35 -9 59 -28.5
t29 -48.5h11h10q-5 40 -37.5 66t-79.5 34q-4 11 -11 23q57 -7 98.5 -39.5t47.5 -83.5h10h11q-6 63 -56.5 101t-118.5 43zM614 330q-10 -1 -18 -2q-35 -5 -66 -24q-15 6 -31 9l1 1q1 1 2 1q27 20 59 30q2 1 18 5q15 3 16 3q16 2 29 2q2 0 5.5 -0.5t4.5 -0.5q9 0 20 -2
q9 -1 19 -3q20 -4 31.5 -8.5t7.5 -15.5q-2 -6 -10 -7l-5 -1q-2 1 -5.5 2t-5.5 1q-10 3 -18 5q-20 5 -38 5h-16zM513 265q-7 3 -12 4q-7 2 -12 2q-12 2 -17 2q-4 0 -15 -1q-9 -1 -16 -3q-11 -4 -16 -6q-31 -13 -50.5 -42t-19.5 -64h11h11q0 40 28 68q-14 -35 -14 -66
q0 -1 1 -1v-1h10h11l-1 1v1q0 42 27 87q16 6 33 6v0q-36 -48 -36 -93v-1v-1h10h11v1v1q0 44 39 89q31 -8 51 -33.5t20 -57.5h10h11q0 37 -21 66.5t-54 41.5zM967 93q-4 12 -14 19t-22 7h-836q-12 0 -22 -7t-14 -19q-8 -26 14 -42l151 -114q11 -8 23 -8h532q12 0 23 8
l152 114q22 16 13 42z" />
    <glyph glyph-name="uniE616" unicode="&#xe616;" 
d="M513 809l-511 -255l511 -255l511 255zM2 512v-468l490 -256v477zM533 -212l490 256v468l-490 -247v-477z" />
    <glyph glyph-name="uniE619" unicode="&#xe619;" 
d="M902 832h-782q-23 0 -39.5 -16t-16.5 -40v-782q0 -23 16.5 -39t39.5 -16h782q23 0 39.5 16t16.5 39v782q0 24 -16.5 40t-39.5 16zM758 135q-29 -23 -83 -23h-324q-83 0 -83 57q0 44 67 102q91 83 299 192h-359v47h440v-47q-272 -147 -357 -229q-35 -34 -39 -57
q0 -20 29 -20h322q33 0 53 13q20 14 30 119l45 -18q-12 -113 -40 -136zM806 602h-158v-61h-49v61h-176v-61h-49v61h-158v45h158v65h49v-65h176v65h49v-65h158v-45z" />
    <glyph glyph-name="uniE61A" unicode="&#xe61a;" 
d="M512 213q-109 0 -187 78t-78 187v8q0 7 5.5 12t12.5 5h494q7 0 12.5 -4.5t5.5 -12.5v-8q0 -109 -78 -187t-187 -78zM282 469q3 -92 70 -157t160 -65t160 65t70 157h-460zM418 538q-17 0 -17 17v51q0 17 17 17t17 -17v-51q0 -17 -17 -17zM623 538q-17 0 -17 17v51
q0 17 17 17t17 -17v-51q0 -17 -17 -17zM521 538q-8 0 -13 4.5t-5 12.5v85q0 17 17.5 17t17.5 -17v-85q0 -17 -17 -17zM350 111q-5 0 -9 2q-13 8 -6 24l68 119q8 13 24 7q13 -8 6 -24l-68 -120q-5 -8 -15 -8zM674 111q-10 0 -15 8l-68 120q-9 14 6 24q15 9 24 -7l68 -119
q9 -15 -6 -24q-4 -2 -9 -2z" />
    <glyph glyph-name="uniE61B" unicode="&#xe61b;" 
d="M954 437q-2 -20 -2 -21q-4 -54 -29 -105q-38 -78 -99 -148q-56 -66 -136 -139q-65 -59 -142 -120q-19 -16 -41 -14q-15 2 -27 12q-145 115 -247 222q-71 76 -114 152q-33 58 -42 104q-1 2 -6 45l-1 5v25l1 5q0 1 0.5 9t1.5 12q12 81 60 140q67 82 168 91q52 5 103 -15
q55 -22 96 -69q1 -1 13 -16l3 4q34 44 80 69q71 38 148 25q88 -15 148 -88q55 -67 62 -156q0 -1 2 -21v-8zM899 441q-2 24 -2 25q-8 72 -54 123q-65 72 -158 63q-62 -7 -111 -55q-29 -28 -47 -72q-5 -11 -16 -11t-16 11q-16 38 -38 62q-56 63 -134 65q-76 3 -130 -49
q-88 -84 -65 -208q7 -35 35 -85q40 -72 112 -148q95 -99 232 -209q4 -3 8 0q73 59 134 114q80 73 134 136q60 69 94 143q21 44 22 95z" />
    <glyph glyph-name="uniE61E" unicode="&#xe61e;" 
d="M401 374h123v-177h-123v177zM853 896h-682q-71 0 -121 -50t-50 -121v-682q0 -71 50 -121t121 -50h682q71 0 121 50t50 121v682q0 71 -50 121t-121 50zM280 38h-51v441q-34 -67 -72 -123q-11 30 -24 63q97 156 144 355l55 -14q-24 -88 -52 -164v-558zM401 96h-54v327h85
v149h-119v51h119v146h56v-146h119v-51h-119v-149h90v-275h-177v-52zM853 47q-72 57 -119 133q-53 -79 -132 -148q-15 21 -38 47q91 76 139 157q-48 102 -61 233q-18 -38 -39 -72q-13 22 -33 48q78 136 108 329l54 -9q-13 -71 -30 -133h178v-49h-39q-10 -215 -75 -349
q48 -82 122 -132q-20 -28 -35 -55zM687 583q-3 -9 -6 -17q9 -157 54 -268q44 109 51 285h-99z" />
    <glyph glyph-name="uniE622" unicode="&#xe622;" 
d="M510 156q-13 0 -22 9q-13 14 -32.5 15t-33.5 -13q-9 -8 -21.5 -7.5t-21 9.5t-8.5 21.5t10 20.5q32 31 76.5 29.5t74.5 -33.5q8 -10 8 -22.5t-10 -20.5q-8 -8 -20 -8zM349 138q-3 0 -4 1q-44 1 -74 33q-9 9 -8.5 21.5t9.5 21.5t21.5 8.5t21.5 -9.5q13 -15 32 -15.5
t34 12.5q9 9 21.5 8.5t21 -9.5t8 -21.5t-9.5 -21.5q-31 -29 -73 -29zM729 145q-14 0 -22 10q-14 14 -33 14.5t-33 -12.5q-10 -8 -22.5 -8t-21 9.5t-8 22t9.5 20.5q33 31 77 29.5t75 -34.5q8 -9 7.5 -21.5t-9.5 -20.5q-9 -9 -20 -9zM567 128h-3q-45 2 -75 34q-8 9 -8 21.5
t9.5 21t22 8.5t20.5 -10q13 -14 32.5 -14.5t33.5 12.5q9 9 21.5 8.5t21 -9.5t8.5 -21.5t-10 -21.5q-30 -29 -73 -29zM431.5 584q-12.5 0 -21.5 8q-38 38 -38 92t38 92q9 8 21.5 8t21.5 -8.5t9 -21t-9 -21.5q-20 -20 -20 -49t20 -49q9 -9 9 -21.5t-9 -21t-21.5 -8.5z
M431.5 443q-12.5 0 -21.5 9t-9 21.5t9 21.5q21 20 21 48.5t-21 48.5q-9 9 -9 21.5t9 21.5t21.5 9t21.5 -9q38 -38 38 -91.5t-38 -91.5q-9 -9 -21.5 -9zM609.5 584q-12.5 0 -21.5 8q-37 38 -37 92t37 92q9 8 21.5 8t21.5 -8.5t9 -21t-9 -21.5q-20 -20 -20 -49t20 -49
q9 -9 9 -21.5t-9 -21t-21.5 -8.5zM609.5 443q-12.5 0 -21 9t-8.5 21.5t8 21.5q21 20 21 48.5t-21 48.5q-8 9 -8 21.5t8.5 21.5t21 9t21.5 -9q38 -38 38 -91.5t-38 -91.5q-9 -9 -21.5 -9zM964 400h-46q-13 0 -22 9t-9 21.5t9 21t22 8.5h46q12 0 21 -8.5t9 -21t-9 -21.5
t-21 -9zM103 400h-46q-13 0 -21.5 9t-8.5 21.5t8.5 21t21.5 8.5h46q13 0 21.5 -8.5t8.5 -21t-8.5 -21.5t-21.5 -9zM752 49l-36 49q74 52 115 133.5t41 173.5q0 27 -4 53l60 8q4 -30 4 -61q0 -106 -47.5 -200.5t-132.5 -155.5zM269 49q-85 61 -133 155.5t-48 200.5q0 31 4 61
l60 -8q-3 -26 -3 -53q0 -92 41 -173.5t114 -133.5zM510.5 289q-167.5 0 -287.5 44q-135 50 -135 130q0 70 103 118q12 5 23.5 0.5t16.5 -15.5t1 -23t-16 -17q-31 -15 -49 -31.5t-18 -31.5q0 -17 26 -37t71 -37t115 -28.5t149 -11.5t149 11.5t115.5 28.5t71.5 37t26 37
q0 15 -17 31t-47 30q-11 6 -15.5 17.5t1 23t17.5 15.5t23 -1q98 -47 98 -116q0 -80 -134 -130q-120 -44 -287.5 -44zM510 -15q-139 0 -242 64l32 52q88 -55 210 -55t210 55l16 -26h31v-17l-15 -9q-103 -64 -242 -64z" />
    <glyph glyph-name="uniE62A" unicode="&#xe62a;" 
d="M512 571l40 -85q25 -60 55.5 -82.5t97.5 -33.5l98 -15l-74 -75q-41 -39 -55 -80t-2 -102l17 -101l-81 44q-3 2 -10 6q-37 19 -53.5 25.5t-32.5 6.5q-30 0 -96 -38l-81 -44l17 100q12 68 1 102t-58 81l-74 75l98 15q69 13 98.5 36t54.5 80zM512 748q-16 0 -27 -23
l-94 -201q-11 -23 -36 -42t-50 -23l-211 -32q-24 -4 -29 -19.5t13 -33.5l153 -156q17 -18 26.5 -49.5t5.5 -56.5l-36 -221q-3 -18 3 -28.5t19 -10.5q9 0 21 7l189 104q22 12 53 12t53 -12l189 -104q12 -7 21 -7q13 0 19 10.5t3 28.5l-37 221q-4 26 6 57t27 49l153 156
q18 18 13 33.5t-29 19.5l-212 32q-24 4 -49 23t-36 42l-95 201q-11 23 -26 23z" />
    <glyph glyph-name="uniE62C" unicode="&#xe62c;" 
d="M728 768q-128 0 -215 -119q-89 119 -215 119q-122 0 -208 -93.5t-86 -225.5q0 -37 7 -71t22 -66.5t25.5 -51t30.5 -48.5q18 -28 41.5 -58t50 -57.5t54.5 -54.5t56 -51t53.5 -45.5t49 -39.5t40 -30t28.5 -21l12 -9q17 -13 38 -13q20 0 38 13l12 9t28.5 21t40 30t49 39.5
t53.5 46t56.5 51.5t54.5 54.5t50 57t42 57.5q19 30 29.5 48.5t26 51t22.5 66.5t7 71q0 86 -39.5 159.5t-107 116.5t-146.5 43v0z" />
    <glyph glyph-name="uniE62E" unicode="&#xe62e;" 
d="M512.5 -128q-103.5 0 -198.5 40q-92 39 -162.5 110t-109.5 162q-40 95 -40 199t40 199q39 92 109.5 162.5t162.5 109.5q95 40 198.5 40t198.5 -40q92 -39 162.5 -109.5t109.5 -162.5q40 -95 40 -199t-40 -199q-39 -91 -109.5 -162t-162.5 -110q-95 -40 -198.5 -40z
M513 873q-99 0 -188.5 -37t-159 -106.5t-106.5 -159t-37 -187.5q0 -100 39 -190.5t104.5 -156.5t156.5 -104.5t190.5 -38.5t190.5 38.5t156.5 104.5t104.5 156.5t39 190.5t-39 190.5t-104.5 156.5t-156.5 104.5t-190 38.5zM638 356q-30 0 -51 21l-56 55q-19 20 -20 49t17 52
l89 117q4 5 10 5.5t10 -3.5l169 -169q4 -5 3.5 -10.5t-4.5 -9.5l-118 -90q-22 -17 -49 -17zM629 623l-81 -106q-12 -16 -11.5 -34.5t13.5 -31.5l55 -56q13 -13 33 -13q18 0 33 12l106 81zM573 406q-5 0 -9 3q-9 10 0 19l139 139q9 9 18.5 0t-0.5 -18l-139 -140q-4 -3 -9 -3z
M539 440q-5 0 -9 3q-10 9 -1 19l130 140q8 9 17.5 0.5t1.5 -18.5l-130 -140q-4 -4 -9 -4zM713 468q-5 0 -9 5q-9 9 1 18l39 36q9 9 18 -0.5t-1 -18.5l-39 -36q-3 -4 -9 -4zM678 435q-6 0 -10 5q-9 9 1 18l36 33q9 9 18 -0.5t-1 -18.5l-35 -33q-4 -4 -9 -4zM612 375
q-5 0 -9 4q-9 10 1 19l65 60q9 9 18 -0.5t0 -18.5l-66 -60q-3 -4 -9 -4zM408 240q-6 0 -10 4q-9 9 0 18l161 161q9 9 18.5 0t0.5 -18l-161 -161q-4 -4 -9 -4zM314 111q-13 0 -22 9l-19 19q-9 9 -9 21.5t9 21.5l78 78q9 9 21.5 9t21.5 -9l20 -19q9 -9 9 -21.5t-9 -21.5
l-79 -78q-8 -9 -21 -9zM373 243q-2 0 -4 -1l-78 -78q-3 -3 0 -7l20 -19q1 -1 3 -1t3 1l78 78q2 2 2 3.5t-2 3.5l-19 19q-1 1 -3 1zM580 241q-5 0 -9 4l-157 156q-9 9 0.5 18.5t18.5 -0.5l156 -156q10 -9 0 -18q-3 -4 -9 -4zM673 111q-12 0 -21 9l-79 78q-9 9 -9 21.5t9 21.5
l20 19q9 9 21.5 9t21.5 -9l78 -78q9 -9 9 -21.5t-9 -21.5l-19 -19q-9 -9 -22 -9zM614 243q-2 0 -3 -1l-19 -19q-4 -4 0 -7l78 -78q1 -1 3 -1t3 1l20 19q1 2 1 3.5t-1 3.5l-78 78q-2 1 -4 1zM344 364q-54 0 -91 38q-38 37 -38 90t37 90t89 37q53 0 91 -38q37 -37 37.5 -90
t-36.5 -90t-89 -37zM341 593q-41 0 -71 -29q-29 -30 -29 -72t30 -72t73 -30q41 0 70 29q30 30 29.5 72t-29.5 72q-31 30 -73 30zM343 410q-34 0 -58 24t-24 57.5t23.5 57.5t57.5 23.5t57 -23.5q8 -8 14 -18q6 -11 -5 -17.5t-18 4.5q-4 7 -9 12q-16 16 -39 16.5t-39 -15.5
t-16 -39t16.5 -39t39.5 -16.5t39 15.5q9 9 18 0t0 -18q-24 -24 -57 -24z" />
    <glyph glyph-name="uniE62F" unicode="&#xe62f;" 
d="M728 852q-128 0 -215 -119q-89 119 -215 119q-122 0 -208 -93.5t-86 -225.5q0 -37 7 -71t22 -66.5t25.5 -51t30.5 -48.5q18 -28 41.5 -58t50 -57.5t54.5 -54.5t56 -51t53.5 -45.5t49 -39.5t40 -30t28.5 -21l12 -9q17 -13 38 -13q20 0 38 13l12 9t28.5 21t40 30t49 39.5
t53.5 46t56.5 51.5t54.5 54.5t50 57t42 57.5q19 30 29.5 48.5t26 51t22.5 66.5t7 71q0 86 -39.5 159.5t-107 116.5t-146.5 43v0z" />
    <glyph glyph-name="uniE630" unicode="&#xe630;" 
d="M315 465q46 0 78.5 32.5t32.5 78.5q0 31 -15 58q-25 45 -73 113l-1 2h-1l-0.5 1t-1.5 1v1q-1 0 -2 1v0l-2 2h-1q-1 1 -1.5 1h-1.5l-1 1q-1 0 -2 1h-1h-2h-1q0 1 -1 1h-2h-1h-1h-2h-1l-1 -1h-2h-1q-1 -1 -2 -1l-1 -1h-1q-1 0 -2 -1h-1q0 -1 -2 -1v-1q-1 0 -2 -1v0
q0 -1 -1 -1.5t-1 -1.5h-1q-1 -1 -1 -2q-51 -68 -74 -114q-15 -27 -15 -57q0 -46 33 -78.5t79 -32.5zM681 -95h-333q-12 0 -20.5 -8.5t-8.5 -20.5t8.5 -20.5t20.5 -8.5h333q12 0 20.5 8.5t8.5 20.5t-8.5 20.5t-20.5 8.5zM980 357l-4 24h-154l122 212q18 30 9 64.5t-40 52.5
l-20 11q-30 18 -64.5 8.5t-52.5 -39.5l-184 -309h-539l-4 -24q-5 -31 -5 -62q0 -107 54 -201.5t149 -155.5l7 -4h8h504h9l7 4q95 61 149 155.5t54 201.5q0 31 -5 62zM860 106q-9 -8 -20 -8q-13 0 -21 9q-25 27 -62 28t-64 -24q-42 -39 -100 -39q-63 0 -107 46q-3 4 -5 8
q-25 24 -59 25q-37 1 -63 -24q-43 -40 -101 -40q-63 0 -107 47q-8 9 -7.5 20.5t9 20t20.5 8t21 -9.5q25 -26 61.5 -27.5t63.5 23.5q44 42 105 40t102 -47q3 -3 5 -7q26 -25 61.5 -25.5t61.5 24.5q44 41 105 39t102 -46q8 -9 7.5 -21t-8.5 -20z" />
    <glyph glyph-name="uniE634" unicode="&#xe634;" 
d="M254 648q-75 -7 -97 -10l-32 32l222 4v121l89 -36q7 0 4 -7l-11 -14l-7 -61h121l8 122l103 -32q7 -4 0 -11l-14 -15l-14 -60h103l58 53l64 -60l4 -4q0 -4 -7 -7l-229 -4l-18 -79q-29 -35 -54 -42q-7 3 -11 14l7 104l-125 -4l-3 -50q-11 -43 -54 -72q-14 -3 -18 4l4 114
h-93zM576 480l-247 -14q-22 -4 -61 -7q-28 -7 -39 -7l-36 32l390 21l50 47l96 -65q8 0 0 -7l-42 -28l-415 -337q-11 -14 -8 -21q8 -11 29 -14q93 -8 236 3q129 7 179 22q54 7 75 89q4 7 7 7q4 -3 4 -10q-7 -54 36 -72q43 -21 39 -61q-7 -32 -61 -50q-147 -50 -483 -14
q-168 28 -86 146z" />
    <glyph glyph-name="uniE637" unicode="&#xe637;" horiz-adv-x="1295" 
d="M1201 23l-850 2v101v0q153 1 450.5 2.5t467.5 2.5q-1 -1 -18 -28t-33 -53zM311 125q-41 0 -144.5 -0.5t-163.5 -1.5l82 -97l226 -1v100zM500 127q-1 6 -23 142q2 -13 8 -48t10.5 -64t4.5 -30v0zM312 30l-1 246l-159 478h358l-160 -478v-246h-2l1 247l110 331
q-133 28 -256 -2q16 -49 53 -159.5t57 -169.5v-247h-1zM311 30v-118q-20 -3 -48.5 -13t-48.5 -18.5t-22 -8.5h280q-2 0 -23 8t-50 18t-49 14v118h-2l1 -119q29 -8 114 -38q-130 0 -261 1q90 32 111 37v119h-2zM1288.5 662.5q-3.5 5.5 -68 25.5t-126.5 38l-63 17l-23 65
l87 88h-520l182 -93l-89 -244l33 91h2h2v1q40 14 151 13q70 1 175 -7l16 -1h2h2q7 -28 82 -241q-17 48 -54.5 161t-36.5 114t31.5 -5.5t64.5 -16.5t42 -16q20 -15 34 -42.5t0 -49.5q-14 -21 -27.5 -45t-29.5 -54.5t-24 -45.5l-8 -13l-69 -125q-19 -3 -343 -4l24 152
q-9 2 -22 4l-88 9h-2h-1l44 121l-44 -121q-94 2 -168 -13q11 -88 21 -155q7 7 117.5 7.5t117.5 -4.5q0 -1 -8 -52q-4 -24 -9 -56q-1 -8 -3.5 -21.5t-2.5 -15.5q6 36 6 37h341l258 423q0 -1 0 15.5t-1 35t-4.5 24zM478 269l23 -142h-2l-23 142h2zM703 655h2l-81 -217h-2z
M711 273h2l-23 -145l-2 1zM1052 656l82 -241h-2l-82 240z" />
    <glyph glyph-name="uniE638" unicode="&#xe638;" 
d="M883 667q-13 0 -22 10q-62 68 -145.5 105t-174.5 37q-90 0 -171 -35t-143 -100q-9 -9 -21.5 -9.5t-22 8.5t-9.5 21.5t8 21.5q69 73 160 113q95 41 199 41q106 0 203 -44q93 -42 162 -117q9 -10 8 -22.5t-10 -21.5q-9 -8 -21 -8zM541 -109q-101 0 -193 39
q-88 38 -156.5 106.5t-106.5 156.5q-39 92 -39 193q0 43 8 85q2 12 12.5 19.5t23 5.5t19.5 -12.5t5 -23.5q-6 -37 -6 -74q0 -88 34 -168.5t92 -138t138.5 -92t168.5 -34.5q112 0 209.5 54t157.5 150q7 11 19.5 13.5t23 -4t13.5 -19t-4 -23.5q-66 -106 -176 -169
q-113 -64 -243 -64zM938 116q-12 0 -21 8l-276 255q-9 8 -10 20t6 21l222 296q7 10 20 12t23 -5.5t12 -20t-6 -23.5l-205 -274l256 -235q9 -9 9.5 -21.5t-7.5 -22.5q-9 -10 -23 -10zM553 542q-40 0 -68.5 28.5t-28.5 69t28.5 69t68.5 28.5t68.5 -28.5t28.5 -69t-28.5 -69
t-68.5 -28.5zM553 675q-15 0 -25.5 -10.5t-10.5 -25t10.5 -25t25.5 -10.5t25.5 10.5t10.5 25t-10.5 25t-25.5 10.5z" />
    <glyph glyph-name="uniE63F" unicode="&#xe63f;" 
d="M309 184q-17 17 -34 0l-68 -68q-8 -8 -8 -17t8 -17q17 -17 34 0l68 68q8 8 8 17.5t-8 16.5zM258 304q-8 8 -17 8t-17 -8l-68 -68q-17 -17 0 -34.5t34 -0.5l68 69q17 17 0 34zM429 133q-17 17 -34 0l-68 -68q-8 -8 -8 -17.5t8 -16.5q17 -18 34 0l68 68q17 17 0 34z
M389 510l-30 -30q-7 -7 -6 -14q0 -38 -11 -72l-14 14q-10 10 -23 -2l-38 -39q-13 -13 -3 -23l205 -205q10 -10 23 3l39 38q12 13 2 23l-14 14q38 12 72 11q7 -1 14 6l30 30zM859 570l-164 164q-17 17 -44 14t-49 -24l-172 -173l246 -246l173 172q21 22 24 49t-14 44z" />
    <glyph glyph-name="uniE643" unicode="&#xe643;" 
d="M591 383l-78 161l-80 -160l-177 -26l128 -125l-31 -176l159 83l158 -84l-30 177l128 124zM512 812q-139 0 -257 -68.5t-186.5 -186.5t-68.5 -257t68.5 -257t186.5 -186.5t257 -68.5t257 68.5t186.5 186.5t68.5 257t-68.5 257t-186.5 186.5t-257 68.5zM512 -132
q-117 0 -216.5 58t-157.5 157.5t-58 216.5t58 216.5t157.5 157.5t216.5 58t216.5 -58t157.5 -157.5t58 -216.5t-58 -216.5t-157.5 -157.5t-216.5 -58z" />
    <glyph glyph-name="uniE653" unicode="&#xe653;" 
d="M798 315l-58 112v47h19v62h-175v-62h17v-49l-57 -110v-433h255v433h-1zM774 -10h-211v219h211v-219zM573 445l-79 154h-1v63h27v85h-241v-85h24v-66l-78 -151v-592h349v592h-1zM540 0h-289v300h289v-300z" />
    <glyph glyph-name="uniE654" unicode="&#xe654;" horiz-adv-x="1295" 
d="M1201 23l-850 2v101q152 1 449.5 2.5t468.5 2.5q-1 -1 -18 -28t-33 -53zM311 125q-42 0 -145 -0.5t-163 -1.5l82 -97l226 -1v100zM500 127q-1 6 -23 142q2 -13 8 -48t10.5 -64t4.5 -30v0zM312 30l-1 246l-159 478h358l-160 -478v-246h-2l1 247l110 331q-133 28 -256 -2
q16 -49 53 -159.5t57 -169.5v-247h-1zM311 30v-118q-20 -3 -48.5 -13t-48.5 -18.5t-22 -8.5h280q-2 0 -23 8t-50 18t-49 14v118h-2l1 -119q29 -8 114 -38h-131q-87 0 -130 1q90 32 111 37v119h-2zM1288.5 662.5q-3.5 5.5 -68 25.5t-126.5 38l-63 17l-23 65l87 88h-520
l182 -93l-56 -153h2h2v1q40 14 151 13q70 1 175 -7l16 -1h2h2q7 -28 82 -241q-17 48 -54.5 161t-36.5 114t31.5 -5.5t64.5 -16.5t42 -16q20 -15 34 -42.5t0 -49.5q-14 -21 -27.5 -45t-29.5 -54.5t-24 -45.5q-1 -1 -2 -3.5t-2.5 -5t-3.5 -4.5l-69 -125q-19 -3 -343 -4l24 152
q-9 2 -22 4l-88 9h-2h-1q-94 2 -168 -13q11 -88 21 -155q7 7 117.5 7.5t117.5 -4.5q0 -1 -8 -52q-4 -24 -9 -56q-1 -8 -3.5 -21.5t-2.5 -15.5q6 36 6 37h341l258 423q0 -1 0 15.5t-1 35t-4.5 24zM478 269l23 -142h-2l-23 142h2zM703 655h2l-81 -217h-2zM711 273h2l-23 -145
l-2 1zM1052 656l82 -241h-2l-82 240z" />
    <glyph glyph-name="uniE657" unicode="&#xe657;" horiz-adv-x="1036" 
d="M1035 237h-1035q3 -8 8.5 -22t24.5 -53.5t40.5 -75t56.5 -79.5t73 -75.5t89 -53t105 -21.5h-17q-2 -3 -4 -7.5t-5.5 -16.5t-2.5 -21t9.5 -16.5t25.5 -7.5h229q18 0 27.5 7t9.5 17.5t-2.5 20.5t-6.5 17l-4 7h-18q58 0 111 21t91.5 54t72 74t55.5 81t37.5 74.5t22.5 54
t7 21.5zM119 560q-37 -32 -36.5 -59t36.5 -57l29 13q-30 25 -30 44.5t30 44.5q44 38 44 70.5t-44 70.5q-29 24 -47 21q-17 -3 10 -28q4 -3 8 -7q38 -34 37 -58t-37 -55zM498 664q-37 -32 -36.5 -59t36.5 -58l29 14q-29 25 -29 44.5t29 44.5q45 37 45 70t-45 70
q-29 25 -46 22t10 -28q3 -4 7 -7q39 -35 38 -59t-38 -54zM887 512q30 -25 30 -44.5t-30 -44.5l29 -14q37 31 37 58t-37 58q-36 31 -37 55t37 59q35 29 20 34q-15 6 -46 -19q-1 -1 -3 -2q-44 -37 -44 -70t44 -70zM897 271q-2 5 -5.5 14t-16 34t-27.5 47.5t-40.5 50.5
t-53.5 48t-67 34t-81 14h-177q-39 0 -76.5 -13.5t-65.5 -35t-53 -47t-42 -51.5t-29.5 -47t-18.5 -35l-6 -13h759zM897 271z" />
    <glyph glyph-name="uniE65E" unicode="&#xe65e;" 
d="M320 673q-3 -3 -7 -9.5t-11.5 -29t-8.5 -49.5v-22q4 -15 9 -21q15 -16 24 -63q6 -45 -7 -62q3 2 7.5 7t13.5 25.5t12 45.5v13q-2 23 -23 49q-9 13 -13 48q0 48 4 68zM320 673zM511 673q-3 -3 -7 -9.5t-11.5 -29t-8.5 -49.5v-22q4 -15 9 -21q15 -16 24 -63q6 -45 -7 -62
q3 2 7.5 7t13.5 25.5t12 45.5v13q-2 23 -23 49q-9 13 -13 48v2v5v9v11q0 6 0.5 12.5t1.5 14t2 14.5zM511 673zM700 673q-3 -3 -7.5 -9.5t-12 -29t-8.5 -49.5v-22q4 -15 10 -21q15 -16 24 -63q5 -45 -7 -62q3 2 7.5 7t13.5 25.5t11 45.5v13q-2 23 -22 49q-10 13 -13 48v9
q-1 10 0 27t4 32zM700 673zM104 237h803q0 3 -1 8t-9.5 18.5t-23 25t-46.5 23t-75 16.5q-73 2 -84 -2q-1 2 -4 5.5t-15.5 12t-29.5 15.5t-48.5 13.5t-69.5 8.5q-2 -1 -11.5 0t-30 -2t-41.5 -7t-45.5 -16t-43.5 -28q-8 1 -22.5 2t-56 -3t-77.5 -18l-28 -13q-39 -24 -41 -59z
M104 237zM66 218q0 -4 1 -11.5t7 -28t17 -39.5t34.5 -42t55.5 -39q101 -37 107 -40q1 0 12 -4t23 -9.5t25.5 -13.5t22.5 -19.5t10 -23.5h251l3 12q23 42 157 82q6 1 15.5 4t34 16.5t44 30.5t38 49t23.5 71v5l-66 -36h22q-1 -3 -3.5 -9t-13.5 -22.5t-26.5 -30.5t-44.5 -29.5
t-65 -24.5q-13 -4 -33.5 -11t-60 -29t-49.5 -42h-200q-1 2 -3.5 5t-12.5 12.5t-22 18.5t-34.5 19.5t-48.5 17.5q-60 24 -75 26q-3 1 -8 3.5t-19.5 11t-27 19t-26 28t-21.5 37.5h759l31 1l47 36zM66 218z" />
    <glyph glyph-name="uniE660" unicode="&#xe660;" 
d="M831 652h-87v76h52v28h-52h-119q-3 38 -31 64t-66.5 26t-66.5 -26t-31 -64h-119h-52v-28h52v-76h-87v-28h87v-310q0 -26 18 -44t44 -18h309q26 0 44 18t18 44v310h87v28zM527.5 818q26.5 0 46.5 -18t23 -44h-139q4 26 23.5 44t46 18zM716 314q0 -14 -10 -24t-24 -10h-309
q-14 0 -24 10t-10 24v414h119h140h118v-414zM621 182l-36 -51l-57 81l-58 -81l-36 51l-68 -124q-10 -19 -6 -41t19 -37l29 -24h239l30 23q14 14 17.5 37t-5.5 43zM658 -1l-20 -16h-220l-20 17q-8 8 -10.5 21.5t2.5 23.5l47 85l33 -47l58 81l57 -81l33 47l46 -84q6 -11 4 -25
t-10 -22z" />
    <glyph glyph-name="uniE663" unicode="&#xe663;" horiz-adv-x="1025" 
d="M755.5 665q84.5 0 144.5 -60t60 -145t-60 -144l-47 -48l-167 -166l-166 -166q-1 -1 -2 -1h-6h-5q-2 0 -2 1l-167 166l-214 214q-60 60 -60 144.5t60 144.5t145 60t145 -60l48 -47l5 -6l45 -45l45 45l6 6l47 47q61 60 145.5 60zM755 729q-111 0 -190 -79l-47 -47l-6 -6
l-5 6l-48 47q-79 79 -190 79t-190 -78.5t-79 -190t79 -190.5l214 -213l166 -167q20 -19 48 -19h5h6q28 0 47 19l167 167l166 166l47 47q79 79 79 190.5t-78.5 190t-190.5 78.5z" />
    <glyph glyph-name="uniE669" unicode="&#xe669;" 
d="M248 17q-1 -16 9 -16q15 0 94 100q10 14 18 14t13.5 -5.5t5.5 -12.5q0 -6 -5 -15q-3 -5 -11.5 -14.5t-22.5 -24.5q-5 -6 -14.5 -16t-13.5 -14q-14 -15 -29 -28q-29 -27 -36 -30q-6 -5 -14.5 -5.5t-16 6t-12 19.5t-2.5 37l17 418q2 33 -34 29l-90 -10q-8 -3 -12.5 3
t-4.5 14t4.5 15t12.5 5l103 9q32 2 46 -10t13 -46zM321 587q0 -5 -2 -10q-3 -5 -8 -7.5t-12 -0.5t-16 12q-30 32 -63 65q-34 34 -75 69q-8 6 -10 11.5t0 10t6.5 8.5t10.5 5q8 0 18 -8q7 -5 73 -69q31 -31 49 -48q19 -18 22 -22q7 -9 7 -16zM563 691l-172 -2q-19 0 -19 16
q0 17 19 18l486 3q19 0 19 -17q0 -16 -19 -16l-278 -2l-25 -113l200 1q27 -1 41 -3t21 -9t9 -22q2 -14 3 -43l1 -133l69 1q18 0 18 -17q0 -16 -18 -16l-555 -4q-18 0 -19 16q0 17 19 17l126 1l41 178l-121 -1q-15 0 -15 16.5t15 16.5l129 1zM869 13q1 -34 -11.5 -47.5
t-42.5 -14.5l-337 -2q-29 0 -42 13t-13 48l-1 187q-1 33 11.5 46t42.5 13l337 3q30 0 42.5 -13t12.5 -46zM836 19l-1 173q0 14 -8 23t-20 9l-325 -3q-26 0 -26 -32l1 -173q0 -32 27 -32l325 2q27 1 27 33zM525 367l288 2l-1 142q0 12 -2 20q-1 7 -4.5 10.5t-11 4.5t-17.5 1
l-211 -1z" />
    <glyph glyph-name="uniE674" unicode="&#xe674;" 
d="M906 727h-789q-13 0 -22.5 -9.5t-9.5 -22.5v-789q0 -13 9.5 -22.5t22.5 -9.5h789q13 0 22.5 9.5t9.5 22.5v789q0 13 -9.5 22.5t-22.5 9.5zM248 515h143v44h57v-44h127v44h55v-44h143v-48h-143v-27h-55v27h-127v-29h-57v29h-143v48zM285 363l-13 51q214 0 453 11l13 -46
q-270 -13 -453 -16zM714 337q-29 -36 -75 -84l-46 33q42 38 72 80zM551 300l-53 -22q-15 32 -39 68l50 20q5 -8 14 -22q19 -29 28 -44zM404 284l-53 -26q-13 22 -40 57q-6 9 -8 13l48 27q10 -14 20 -27zM749 47q-152 48 -209 114v-130h-59v132q-62 -70 -207 -121
q-13 24 -31 51q125 31 203 97h-194v48h229v33h59v-33h231v-48h-196q75 -64 203 -93q-15 -23 -29 -50z" />
    <glyph glyph-name="uniE695" unicode="&#xe695;" 
d="M339 282q0 -20 -8 -70q-12 -50 -12 -75v-37q20 -195 -109 -191q-129 0 -129 195q0 120 17 240q-73 4 -77 120q0 67 24 116q-4 -41 32 -45q17 0 37 16q28 25 68 25q100 -8 109 -128q0 -37 -21 -112q-20 -79 -20 -120q0 -33 12.5 -33t40.5 58q20 45 28 45q4 0 6 -1t2 -3z
M94 858h48q189 8 189 -133q-4 -112 -109 -116q-112 -4 -104 166q0 50 -24 83zM990 373q0 -79 -80 -79q-33 0 -101 9q-69 4 -104 4q-48 0 -141 -8q-96 -13 -145 -13q-100 8 -108 116q4 79 56 108q-12 -13 -12 -33q0 -33 56 -33h24q12 32 25 70h-5q-100 -4 -112 128
q28 -8 64 -8q25 0 77 8q-37 -8 12 0q0 9 4 21v13q0 12 -12 20h-28q-97 0 -113 145q52 -8 237 13q141 16 189 16q173 8 169 -91q0 -66 -84 -66h-57q-72 4 -112 0h-16q28 -17 28 -46h-4h8q233 4 229 -161v-42q56 -21 56 -91zM379 266h12q44 0 97 -17q16 4 48 8q105 21 169 21
q261 4 257 -211q8 -174 -133 -170q-72 0 -92 50q-36 -13 -125 -13h-16q-12 0 -32 4q4 0 -4 4q-24 -45 -84 -45q-113 4 -117 153q0 29 16 87q12 54 12 83q4 25 -8 46zM661 137q-16 0 -45 -4q-32 -4 -48 -4q8 -34 8 -71q49 17 105 17h20q16 -4 20 -4v25q0 45 -60 41zM697 535
h-44q-13 -42 -25 -75q17 4 53 4q37 4 52 4q12 71 -36 67z" />
    <glyph glyph-name="uniE6C0" unicode="&#xe6c0;" horiz-adv-x="1134" 
d="M979 314h106q29 0 38.5 -7.5t9.5 -25.5q1 -37 -7 -45q-10 -13 -32.5 -10t-43.5 22t-71 17v-275q0 -49 -34.5 -83.5t-83.5 -34.5h-588q-48 0 -82.5 34.5t-34.5 83.5v275q-51 2 -73 -17q-20 -19 -42.5 -22t-33.5 10q-10 11 -6 45q2 20 11.5 26.5t40.5 6.5h103h26h770h27z
M701 683q17 11 22 24.5t2 22.5t-10 26q-10 21 -14 33t-7.5 31.5t1.5 38t19 37.5l61 -43q-6 -9 -5.5 -21.5t3.5 -21t10 -23.5l12 -29q4 -9 8.5 -26t2.5 -28.5t-8 -26.5t-20.5 -29t-36.5 -28zM506 683q17 11 22 24.5t2 22.5t-10 26q-10 21 -14 33t-7.5 31.5t1.5 38t19 37.5
l61 -43q-6 -9 -5.5 -21.5t3.5 -21t10 -23.5l12 -29q4 -9 8.5 -26t2.5 -28.5t-8 -26.5t-20.5 -29t-36.5 -28zM299 683q17 11 22 24.5t2 22.5t-10 26q-10 21 -14 33t-7.5 31.5t1.5 38t19 37.5l61 -43q-6 -9 -5.5 -21.5t3.5 -21t10 -23.5l12 -29q4 -9 8.5 -26t2.5 -28.5
t-8 -26.5t-20.5 -29t-36.5 -28zM273 471h250l-16 66q-4 13 7 23t26 10h46q14 0 25 -10t8 -23l-17 -66h259q45 0 78.5 -29.5t38.5 -73.5h-821q5 44 38.5 73.5t77.5 29.5z" />
    <glyph glyph-name="uniE6C8" unicode="&#xe6c8;" 
d="M315 465q46 0 78.5 32.5t32.5 78.5q0 31 -15 58q-25 45 -73 113q0 1 -1 2h-1l-0.5 1t-1.5 1v1q-1 0 -2 1v0l-2 2h-1q-1 1 -1.5 1h-1.5l-1 1q-1 0 -2 1h-1h-2h-1q0 1 -1 1h-2h-1h-1h-2h-1l-1 -1h-2h-1q-1 -1 -2 -1l-1 -1h-1q-1 0 -2 -1h-1q0 -1 -2 -1v-1q-1 0 -2 -1v0
q0 -1 -1 -1.5t-1 -1.5h-1q-1 -1 -1 -2q-51 -68 -74 -114q-15 -27 -15 -57q0 -46 33 -78.5t79 -32.5zM314 680q32 -47 46 -74v-2h1q8 -13 8 -28q0 -22 -16 -37.5t-38 -15.5t-38 15.5t-16 37.5q0 15 8 28q1 2 1 3q12 26 44 73zM759 193q-61 2 -105 -39q-26 -25 -61.5 -24.5
t-61.5 25.5q-2 4 -5 7q-41 45 -102 47t-105 -40q-27 -25 -63.5 -23.5t-61.5 27.5q-9 9 -21 9.5t-20.5 -8t-9 -20t7.5 -20.5q44 -47 107 -47q58 0 101 40q26 25 63 24q34 -1 59 -25q2 -4 5 -8q44 -46 107 -46q58 0 100 39q27 25 64 24t62 -28q8 -9 21 -9q11 0 20 8
q8 8 8.5 20t-7.5 21q-41 44 -102 46zM681 -95h-333q-12 0 -20.5 -8.5t-8.5 -20.5t8.5 -20.5t20.5 -8.5h333q12 0 20.5 8.5t8.5 20.5t-8.5 20.5t-20.5 8.5zM980 357l-4 24h-154l122 212q18 30 9 64.5t-40 52.5l-20 11q-30 18 -64.5 8.5t-52.5 -39.5l-184 -309h-539l-4 -24
q-5 -31 -5 -62q0 -107 54 -201.5t149 -155.5l7 -4h8h504h9l7 4q95 61 149 155.5t54 201.5q0 31 -5 62zM826 660v1q6 10 17 13t21 -3l20 -11q10 -6 13 -17t-3 -21l-131 -226q-3 -7 -3 -15h-101zM758 -8h-487q-80 53 -124.5 133t-44.5 170q0 14 1 28h505v0h318q1 -14 1 -28
q0 -90 -45 -170t-124 -133z" />
    <glyph glyph-name="uniE6D7" unicode="&#xe6d7;" 
d="M681 -84h-332q-12 0 -20.5 -8.5t-8.5 -20.5t8.5 -20t20.5 -8h332q12 0 20.5 8t8.5 20t-8.5 20.5t-20.5 8.5zM955 155q29 73 29 150q0 31 -5 62l-3 24h-154l122 211q17 31 8 65t-39 52l-20 11q-31 18 -65 8.5t-52 -39.5l-184 -308h-537l-4 -24q-5 -31 -5 -62
q0 -77 30 -150q1 -6 4 -11q53 -120 168 -194l7 -5h9h502h9l7 5q116 74 168 194q3 5 5 11zM826 670q6 10 17 13t21 -3l20 -11q10 -6 12.5 -17t-2.5 -21l-131 -225q-3 -7 -3 -15h-100zM105 334h504v0h316q1 -15 1 -29q0 -59 -20 -116h-782q-20 57 -20 116q0 14 1 29zM758 3
h-486q-77 51 -121 129h728q-44 -78 -121 -129z" />
    <glyph glyph-name="uniE6F3" unicode="&#xe6f3;" 
d="M587 552l23 -35q18 11 27 22.5t9 25t-2.5 22.5t-9.5 24q-12 24 -5 37l-34 24q-10 -14 -11.5 -29t1.5 -24t10 -25q7 -10 6.5 -21.5t-14.5 -20.5zM678 434h-145l9 36q3 7 -3.5 13.5t-15.5 6.5h-25q-8 0 -14.5 -6t-5.5 -14l10 -36h-141q-25 0 -43.5 -17t-21.5 -41h462
q-4 24 -22.5 41t-43.5 17zM803 344h-59h-14h-434h-14h-58q-18 0 -23 -3.5t-6 -15.5q-3 -17 3 -26q6 -7 19 -5.5t25 12.5q9 9 40 9v-155q0 -27 19.5 -46.5t45.5 -19.5h331q28 0 47 19.5t19 46.5v155q28 0 40 -9q12 -11 24.5 -12.5t18.5 5.5q3 3 3 26q0 11 -5 15t-22 4z
M362 552l22 -35q18 11 27.5 22.5t9 25t-3 22.5t-9.5 24q-12 24 -5 37l-33 24q-11 -14 -12.5 -29t1.5 -24t11 -25q6 -10 5.5 -21.5t-13.5 -20.5zM478 552l23 -35q18 11 27 22.5t9 25t-2.5 22.5t-9.5 24q-12 24 -5 37l-35 24q-11 -14 -12.5 -29t1.5 -24t11 -25q5 -9 6.5 -15
t-1 -13.5t-12.5 -13.5zM512 896q-212 0 -362 -150t-150 -362t150 -362t362 -150t362 150t150 362t-150 362t-362 150zM512 -77q-94 0 -179 36.5t-147 98.5t-98.5 147t-36.5 179t36.5 179t98.5 147t147 98.5t179 36.5t179 -36.5t147 -98.5t98.5 -147t36.5 -179t-36.5 -179
t-98.5 -147t-147 -98.5t-179 -36.5z" />
    <glyph glyph-name="uF0020" unicode="&#xf0020;" 
d="M958 403l-309 45l-137 279l-138 -279l-308 -45l223 -217l-53 -307l276 145l275 -145l-52 307zM512 93l-195 -103l37 217l-157 154l217 31l98 198l97 -198l218 -31l-158 -154l37 -217z" />
  </font>
</defs>
</svg>
